<?xml version="1.0" encoding="UTF-8" standalone="no"?>
<!-- Created with Inkscape (http://www.inkscape.org/) -->

<svg
   width="256"
   height="256"
   viewBox="0 0 67.733333 67.733333"
   version="1.1"
   id="svg1"
   xml:space="preserve"
   inkscape:version="1.3.2 (091e20e, 2023-11-25, custom)"
   sodipodi:docname="favicon.svg"
   xmlns:inkscape="http://www.inkscape.org/namespaces/inkscape"
   xmlns:sodipodi="http://sodipodi.sourceforge.net/DTD/sodipodi-0.dtd"
   xmlns="http://www.w3.org/2000/svg"
   xmlns:svg="http://www.w3.org/2000/svg"><sodipodi:namedview
     id="namedview1"
     pagecolor="#ffffff"
     bordercolor="#111111"
     borderopacity="1"
     inkscape:showpageshadow="0"
     inkscape:pageopacity="0"
     inkscape:pagecheckerboard="false"
     inkscape:deskcolor="#d1d1d1"
     inkscape:document-units="px"
     inkscape:zoom="4.0872334"
     inkscape:cx="149.48987"
     inkscape:cy="135.91101"
     inkscape:window-width="2560"
     inkscape:window-height="1361"
     inkscape:window-x="-9"
     inkscape:window-y="-9"
     inkscape:window-maximized="1"
     inkscape:current-layer="layer1" /><defs
     id="defs1" /><g
     inkscape:label="Layer 1"
     inkscape:groupmode="layer"
     id="layer1"><circle
       style="opacity:1;fill:#0d47a1;stroke:#0d47a1;stroke-width:0.263966;stroke-opacity:1"
       id="path2"
       cx="33.866665"
       cy="33.866665"
       r="33.734684" /><path
       d="M 16.783819,8.2853806 H 4.8048188 l 8.9740002,-5.265 -0.995,-1.735 -11.2640002,6.571 a 1.482,1.482 0 0 0 -0.73599996,1.281 v 8.1480004 a 2,2 0 0 0 1.99999996,2 H 16.783819 a 2,2 0 0 0 2,-2 v -7 a 2,2 0 0 0 -2,-2.0000004 z m -1.5,9.0000004 a 1.5005001,1.5005001 0 1 1 0.001,-3.001 1.5005001,1.5005001 0 0 1 -0.001,3.001 z m 1.5,-5 H 2.7838188 v -2 H 16.783819 Z"
       id="path1"
       style="fill:#dbe9ff"
       transform="matrix(2.2048611,0,0,2.2048611,12.294705,7.7492476)" /></g></svg>
