<?xml version="1.0" encoding="UTF-8" standalone="no"?>
<!-- Created with Inkscape (http://www.inkscape.org/) -->

<svg
   width="256"
   height="256"
   viewBox="0 0 67.733333 67.733333"
   version="1.1"
   id="svg1"
   xml:space="preserve"
   inkscape:version="1.3.2 (091e20e, 2023-11-25, custom)"
   sodipodi:docname="favicon.svg"
   xmlns:inkscape="http://www.inkscape.org/namespaces/inkscape"
   xmlns:sodipodi="http://sodipodi.sourceforge.net/DTD/sodipodi-0.dtd"
   xmlns="http://www.w3.org/2000/svg"
   xmlns:svg="http://www.w3.org/2000/svg"><sodipodi:namedview
     id="namedview1"
     pagecolor="#ffffff"
     bordercolor="#111111"
     borderopacity="1"
     inkscape:showpageshadow="0"
     inkscape:pageopacity="0"
     inkscape:pagecheckerboard="false"
     inkscape:deskcolor="#d1d1d1"
     inkscape:document-units="px"
     inkscape:zoom="0.14928528"
     inkscape:cx="147.36885"
     inkscape:cy="137.32097"
     inkscape:window-width="2560"
     inkscape:window-height="1361"
     inkscape:window-x="-9"
     inkscape:window-y="-9"
     inkscape:window-maximized="1"
     inkscape:current-layer="layer1" /><defs
     id="defs1" /><g
     inkscape:label="Layer 1"
     inkscape:groupmode="layer"
     id="layer1"><circle
       style="opacity:1;fill:#0d47a1;stroke:#0d47a1;stroke-width:0.263966;stroke-opacity:1"
       id="path2"
       cx="33.866665"
       cy="33.866665"
       r="33.734684" /><path
       d="M 52.3875,24.341666 H 20.693062 L 44.436771,10.411354 41.804167,5.8208333 12.0015,23.206604 a 3.9211249,3.9211249 0 0 0 -1.947333,3.389312 v 21.558251 a 5.2916667,5.2916665 0 0 0 5.291666,5.291666 H 52.3875 a 5.2916667,5.2916665 0 0 0 5.291666,-5.291666 V 29.633333 A 5.2916667,5.2916665 0 0 0 52.3875,24.341666 Z m -3.96875,23.812501 a 3.9700734,3.9700732 0 1 1 0.0026,-7.940146 3.9700734,3.9700732 0 0 1 -0.0026,7.940146 z M 52.3875,34.925 H 15.345833 V 29.633333 H 52.3875 Z"
       id="path1"
       style="fill:#dbe9ff;stroke-width:2.64583" /></g></svg>
